# xmcd
#
# Track frame offsets: 
#        150
#        22475
#        43265
#        61660
#        78578
#        98980
#        117608
#        131000
#        146843
#        162470
#        179235
#        198933
#        218380
#        236230
#        255348
#        272803
#
# Disc length: 3933 seconds
#
# Revision: 1
# Processed by: cddbd v1.5.2PL0 Copyright (c) Steve Scherf et al.
# Submitted via: ExactAudioCopy v0.99pb4
#
DISCID=fa0f5b10
DTITLE=LeAnn Rimes - Sittin' On Top Of The World (Japan)
DYEAR=1998
DGENRE=Country
TTITLE0=How Do I Live (Bonus Track)
TTITLE1=Commitment
TTITLE2=Looking Through Your Eyes
TTITLE3=Undeniable
TTITLE4=Feels Like Home
TTITLE5=Surrender
TTITLE6=These Arms Of Mine
TTITLE7=Nothin' New Under The Moon
TTITLE8=When Am I Gonna Get Over You
TTITLE9=Rock Me
TTITLE10=More Than Anyone Deserves
TTITLE11=Insensitive
TTITLE12=All The Lovin' And Hurtin'
TTITLE13=Sittin' On The Top Of The World
TTITLE14=The Heart Never Forgets
TTITLE15=Purple Rain
EXTD=
EXTT0=
EXTT1=
EXTT2=
EXTT3=
EXTT4=
EXTT5=
EXTT6=
EXTT7=
EXTT8=
EXTT9=
EXTT10=
EXTT11=
EXTT12=
EXTT13=
EXTT14=
EXTT15=
PLAYORDER=
